<svg xmlns="http://www.w3.org/2000/svg" xmlns:xlink="http://www.w3.org/1999/xlink" viewBox="0 0 178.54 297.24" class="featureSvg_GfXr" role="img"><defs><linearGradient id="a"><stop stop-opacity="0.438" offset="0"></stop><stop stop-opacity="0.182" offset="0.25"></stop><stop stop-color="#fff" stop-opacity="0.458" offset="0.5"></stop><stop stop-color="#fff" stop-opacity="0.798" offset="0.75"></stop><stop stop-color="#fff" stop-opacity="0.581" offset="0.875"></stop><stop stop-color="#eee" stop-opacity="0.143" offset="0.938"></stop><stop stop-color="#595959" stop-opacity="0.212" offset="1"></stop></linearGradient><linearGradient id="c"><stop stop-color="#d2cfbc" offset="0"></stop><stop stop-color="#938e63" offset="1"></stop></linearGradient><linearGradient id="b"><stop offset="0"></stop><stop stop-opacity="0" offset="1"></stop></linearGradient><linearGradient id="d" y2="430.29" xlink:href="#a" gradientUnits="userSpaceOnUse" x2="-42.458" gradientTransform="scale(1 -1) rotate(26.245 1459.265 -195.641)" y1="426.4" x1="-2.931"></linearGradient><linearGradient id="e" y2="427.28" xlink:href="#b" gradientUnits="userSpaceOnUse" x2="-9.312" gradientTransform="scale(1 -1) rotate(26.245 1459.265 -195.641)" y1="421.01" x1="7.499"></linearGradient><linearGradient id="f" gradientUnits="userSpaceOnUse" x2="55" gradientTransform="scale(1 -1) rotate(26.245 1459.265 -195.641)" y1="422.88" y2="422.88"><stop stop-color="#a19c73" offset="0"></stop><stop stop-color="#d3cfb8" offset="0.5"></stop><stop stop-color="#dbdac7" offset="0.75"></stop><stop stop-color="#c1bfa4" offset="1"></stop></linearGradient><linearGradient id="h" y2="572.99" xlink:href="#c" gradientUnits="userSpaceOnUse" x2="54.996" gradientTransform="scale(1 -1) rotate(26.245 1459.265 -195.641)" y1="572.99" x1="-0.001"></linearGradient><linearGradient id="i" y2="572.99" xlink:href="#c" spreadMethod="reflect" gradientUnits="userSpaceOnUse" x2="54.996" gradientTransform="matrix(.87857 -.43316 -.38006 -.77087 27.924 592.46)" y1="573.61" x1="22.738"></linearGradient><linearGradient id="j" y2="420.7" xlink:href="#a" gradientUnits="userSpaceOnUse" x2="51.687" gradientTransform="scale(1 -1) rotate(26.245 1459.265 -195.641)" y1="423.51" x1="3.318"></linearGradient><linearGradient id="k" y2="407.58" xlink:href="#b" gradientUnits="userSpaceOnUse" x2="25.709" gradientTransform="scale(1 -1) rotate(26.245 1462.865 -195.915)" y1="423.31" x1="23.506"></linearGradient><radialGradient id="g" xlink:href="#c" gradientUnits="userSpaceOnUse" cy="238.48" cx="21.377" gradientTransform="matrix(1 0 0 8.332 0 -1713.1)" r="31"></radialGradient></defs><g fill-rule="evenodd"><path d="M-160.43 305.62c16.78-4.39 26.89-13.11 50.35-13.18l-4.09-17.31c-22.65-.63-33.79 8.85-50.69 13.28 6.49 1 11.32 2.24 19.05 1.47-2.61 6.25-9.56 10.57-14.62 15.74z" style="color:#000" fill="#c40000" transform="translate(191.721 -120.294)"></path><path d="M-159.83 305.43c16.79-4.4 26.29-12.92 49.75-12.99l-3.62-16.75c-22.65-.64-33.56 8.37-50.45 12.79 6.49 1.01 11.1 2.1 18.83 1.33-2.61 6.25-9.45 10.45-14.51 15.62z" style="color:#000" fill="url(#d)" transform="translate(191.721 -120.294)"></path><path d="M-140.16 298.33c8.13-3.15 16.9-5.85 30.08-5.89l-3.62-16.75c-14.25-.4-23.85 3.01-33.21 6.7l6.75 15.94z" style="color:#000" fill="url(#e)" transform="translate(191.721 -120.294)"></path><path d="M-30.203 412.38c-13.314 6.56-23.493 6.55-26.452 1.75l-134.64-266.29c2.57 5.2 15.7 3.97 29.32-2.75 13.62-6.71 22.58-16.37 20.02-21.57l128.36 269.38c2.009 5.28-3.288 12.91-16.603 19.48z" style="color:#000" fill="url(#f)" transform="translate(191.721 -120.294)"></path><path d="M46 228.5a31 20.5 0 1 1-62 0 31 20.5 0 1 1 62 0z" style="color:#000" fill="url(#g)" transform="matrix(.79565 -.39228 -.2265 -.45939 64.921 126.236)"></path><path d="M-161.65 145.77c-8.31 4.02-26.38 8.67-29.64 2.07 3.25 6.59 21.88.08 28.98-3.42 7.9-3.89 22.4-15.34 19.72-20.76-.22-.45-.76-1.69-1.7-2.32 1.26.62 1.91 1.33 2.35 2.23 3.51 7.11-12.24 18.58-19.71 22.2z" style="color:#000" fill="url(#h)" transform="translate(191.721 -120.294)"></path><path d="M-162.98 144.34c-8.14 3.95-25.64 8.91-28.44 3.23 2.79 5.67 20.92-.97 27.87-4.39 7.73-3.82 21.93-14.55 19.64-19.21-1.3-2.62-3.65-3.24-5.52-3.39 2.2-.19 4.74.45 6.14 3.28 3.01 6.11-12.38 16.93-19.69 20.48z" style="color:#000" fill="url(#i)" transform="translate(191.721 -120.294)"></path><path d="M-118.38 292.93c17.39 2.88 42.232-12.39 46.68-23.02l-8.243-17.12c-2.976 11.92-32.577 27.54-46.997 23.17l8.56 16.97z" style="color:#000" fill="#c40000" transform="translate(191.721 -120.294)"></path><path d="M-118.38 292.93c17.39 2.88 42.232-12.39 46.68-23.02l-8.077-16.78c-2.976 11.92-32.573 27.54-46.993 23.17l8.39 16.63z" style="color:#000" fill="url(#j)" transform="translate(191.721 -120.294)"></path><path d="M-72.219 269.88c-5.332 10.57-29.281 24.93-46.221 22.12l1.28 2.48c17.385 2.88 41.274-12.32 45.722-22.95l-.781-1.65z" style="color:#000" fill="url(#k)" transform="translate(191.721 -120.294)"></path></g></svg>