<svg xmlns="http://www.w3.org/2000/svg" width="37" height="43" viewBox="0 0 37 43" fill="none">
<g clip-path="url(#clip0_2_236)">
	<path d="M0 7.92856C0 6.46673 1.18103 5.28571 2.64286 5.28571H34.3571C35.819 5.28571 37 6.46673 37 7.92856C37 9.39039 35.819 10.5714 34.3571 10.5714H2.64286C1.18103 10.5714 0 9.39039 0 7.92856ZM0 21.1428C0 19.681 1.18103 18.5 2.64286 18.5H34.3571C35.819 18.5 37 19.681 37 21.1428C37 22.6047 35.819 23.7857 34.3571 23.7857H2.64286C1.18103 23.7857 0 22.6047 0 21.1428ZM37 34.3571C37 35.819 35.819 37 34.3571 37H2.64286C1.18103 37 0 35.819 0 34.3571C0 32.8953 1.18103 31.7143 2.64286 31.7143H34.3571C35.819 31.7143 37 32.8953 37 34.3571Z" fill="#F5F6F7"/>
</g>
<defs>
	<clipPath id="clip0_2_236">
	<rect width="37" height="42.2857" fill="white"/>
	</clipPath>
</defs>
</svg>